<svg width="29" height="25" viewBox="0 0 29 25" fill="none" xmlns="http://www.w3.org/2000/svg">
<path d="M2.36574 10.6178C9.97139 7.21913 15.043 4.9785 17.5806 3.89594C24.826 0.805017 26.3315 0.268091 27.3128 0.250172C27.5286 0.246461 28.0112 0.301321 28.3238 0.561471C28.5877 0.781136 28.6603 1.07787 28.6951 1.28614C28.7298 1.49441 28.7731 1.96884 28.7387 2.33956C28.3461 6.5708 26.6472 16.8389 25.7829 21.578C25.4172 23.5832 24.697 24.2556 23.9999 24.3214C22.4848 24.4644 21.3343 23.2944 19.8669 22.3078C17.5707 20.764 16.2735 19.803 14.0446 18.2965C11.4687 16.5555 13.1385 15.5986 14.6065 14.0348C14.9907 13.6255 21.6661 7.39787 21.7953 6.83292C21.8115 6.76227 21.8265 6.49889 21.674 6.35982C21.5214 6.22076 21.2963 6.26831 21.1338 6.30614C20.9035 6.35975 17.2352 8.84654 10.129 13.7665C9.0878 14.4998 8.1447 14.8571 7.29971 14.8384C6.36817 14.8178 4.57628 14.2982 3.24418 13.8541C1.61032 13.3093 0.311757 13.0213 0.424833 12.0962C0.48373 11.6144 1.1307 11.1216 2.36574 10.6178Z" fill="#3F7CFF"/>
</svg>
