<svg width="28" height="28" viewBox="0 0 28 28" fill="none" xmlns="http://www.w3.org/2000/svg">
<path d="M23.2795 4.76187C20.7859 2.2157 17.3388 0.833496 13.8183 0.833496C6.33742 0.833496 0.323342 6.87156 0.396685 14.2191C0.396685 16.547 1.05677 18.8022 2.1569 20.8391L0.25 27.7502L7.36421 25.9315C9.34446 27.0227 11.5447 27.5319 13.745 27.5319C21.1526 27.5319 27.1667 21.4939 27.1667 14.1463C27.1667 10.5817 25.7732 7.2353 23.2795 4.76187ZM13.8183 25.2767C11.8381 25.2767 9.85786 24.7675 8.17098 23.749L7.73093 23.5308L3.47707 24.622L4.5772 20.4754L4.28383 20.0389C1.05677 14.8738 2.59696 8.03552 7.87761 4.83462C13.1583 1.63372 19.9791 3.16142 23.2062 8.39926C26.4332 13.6371 24.8931 20.4026 19.6124 23.6035C17.9255 24.6948 15.8719 25.2767 13.8183 25.2767ZM20.2725 17.2017L19.4657 16.838C19.4657 16.838 18.2922 16.3288 17.5588 15.965C17.4855 15.965 17.4121 15.8923 17.3388 15.8923C17.1188 15.8923 16.9721 15.965 16.8254 16.0378C16.8254 16.0378 16.752 16.1105 15.7252 17.2745C15.6519 17.42 15.5052 17.4927 15.3585 17.4927H15.2852C15.2119 17.4927 15.0652 17.42 14.9918 17.3472L14.6251 17.2017C13.8183 16.838 13.0849 16.4015 12.4982 15.8195C12.3515 15.674 12.1315 15.5285 11.9848 15.383C11.4714 14.8738 10.958 14.2918 10.5913 13.6371L10.5179 13.4916C10.4446 13.4189 10.4446 13.3461 10.3713 13.2006C10.3713 13.0551 10.3713 12.9096 10.4446 12.8369C10.4446 12.8369 10.738 12.4731 10.958 12.2549C11.1047 12.1094 11.178 11.8912 11.3247 11.7457C11.4714 11.5274 11.5447 11.2364 11.4714 11.0182C11.398 10.6544 10.5179 8.69025 10.2979 8.25377C10.1512 8.03552 10.0045 7.96277 9.78451 7.89003H9.56449C9.4178 7.89003 9.19777 7.89003 8.97775 7.89003C8.83106 7.89003 8.68438 7.96278 8.53769 7.96278L8.46435 8.03552C8.31767 8.10827 8.17098 8.25377 8.0243 8.32651C7.87761 8.47201 7.80427 8.6175 7.65758 8.763C7.14419 9.41773 6.85082 10.218 6.85082 11.0182C6.85082 11.6002 6.9975 12.1821 7.21753 12.6914L7.29087 12.9096C7.95095 14.2918 8.83106 15.5285 10.0045 16.6198L10.2979 16.9107C10.5179 17.129 10.738 17.2745 10.8846 17.4927C12.4248 18.8022 14.1851 19.7479 16.1653 20.2571C16.3853 20.3299 16.6787 20.3299 16.8987 20.4026C17.1188 20.4026 17.4121 20.4026 17.6322 20.4026C17.9989 20.4026 18.4389 20.2571 18.7323 20.1116C18.9523 19.9662 19.099 19.9662 19.2457 19.8207L19.3924 19.6752C19.5391 19.5297 19.6857 19.4569 19.8324 19.3114C19.9791 19.1659 20.1258 19.0204 20.1991 18.8749C20.3458 18.5839 20.4192 18.2202 20.4925 17.8565C20.4925 17.711 20.4925 17.4927 20.4925 17.3472C20.4925 17.3472 20.4192 17.2745 20.2725 17.2017Z" fill="#3F7CFF"/>
</svg>
